<svg id="visual" viewBox="0 0 900 600" width="900" height="600" xmlns="http://www.w3.org/2000/svg" xmlns:xlink="http://www.w3.org/1999/xlink" version="1.1"><rect x="0" y="0" width="900" height="600" fill="#FFFFFF"></rect><defs><linearGradient id="grad1_0" x1="33.3%" y1="100%" x2="100%" y2="0%"><stop offset="20%" stop-color="#ffffff" stop-opacity="1"></stop><stop offset="80%" stop-color="#ffffff" stop-opacity="1"></stop></linearGradient></defs><defs><linearGradient id="grad2_0" x1="0%" y1="100%" x2="66.7%" y2="0%"><stop offset="20%" stop-color="#ffffff" stop-opacity="1"></stop><stop offset="80%" stop-color="#ffffff" stop-opacity="1"></stop></linearGradient></defs><g transform="translate(900, 600)"><path d="M-108.2 0C-105.5 -19.2 -102.9 -38.5 -93.7 -54.1C-84.5 -69.7 -68.7 -81.7 -52 -90.1C-35.3 -98.5 -17.6 -103.3 0 -108.2L0 0Z" fill="#fec926"></path></g><g transform="translate(0, 0)"><path d="M108.2 0C104.2 18.2 100.3 36.4 91.8 53C83.3 69.6 70.1 84.7 54.1 93.7C38 102.6 19 105.4 0 108.2L0 0Z" fill="#fec926"></path></g></svg>